<svg xmlns="http://www.w3.org/2000/svg" width="100" height="100" viewBox="0 0 100 100">
  <g id="Eyes" transform="translate(6641 13852)">
    <g id="Group_11399" data-name="Group 11399" transform="translate(-6639 -13841)">
      <g id="Group_9392" data-name="Group 9392">
        <g id="Group_9391" data-name="Group 9391" transform="translate(0)">
          <path id="Path_28851" data-name="Path 28851" d="M42.944,119.225c8.193-14.625,8.258-44.363,0-59.1,2.309-2.751,3.588-4.5,3.683-4.634a2.83,2.83,0,1,0-4.58-3.326C33.144,64.42,16.262,79.6,1.564,87.14l-.028.014a2.833,2.833,0,0,0,0,5.038l.028.014c16.085,8.247,32.288,23.714,40.483,34.98a2.83,2.83,0,0,0,4.58-3.327C46.531,123.728,45.252,121.976,42.944,119.225Zm-7.1-29.552a8.506,8.506,0,0,1,7.178-8.389,83.622,83.622,0,0,1,0,16.777A8.509,8.509,0,0,1,35.846,89.673Z" transform="translate(0 -50.993)" fill="#0a195c"/>
        </g>
      </g>
      <g id="Group_9394" data-name="Group 9394" transform="translate(64.148 35.849)">
        <g id="Group_9393" data-name="Group 9393">
          <path id="Path_28852" data-name="Path 28852" d="M369.615,241H342.822a2.83,2.83,0,1,0,0,5.66h26.793a2.83,2.83,0,1,0,0-5.66Z" transform="translate(-339.992 -241)" fill="#0a195c"/>
        </g>
      </g>
      <g id="Group_9396" data-name="Group 9396" transform="translate(64.148 11.32)">
        <g id="Group_9395" data-name="Group 9395" transform="translate(0 0)">
          <path id="Path_28853" data-name="Path 28853" d="M372.28,112.883a2.83,2.83,0,0,0-3.609-1.73l-26.793,9.434a2.83,2.83,0,0,0,1.88,5.339l26.793-9.434A2.83,2.83,0,0,0,372.28,112.883Z" transform="translate(-339.987 -110.992)" fill="#0a195c"/>
        </g>
      </g>
      <g id="Group_9398" data-name="Group 9398" transform="translate(64.148 50.943)">
        <g id="Group_9397" data-name="Group 9397" transform="translate(0 0)">
          <path id="Path_28854" data-name="Path 28854" d="M370.551,330.593l-26.793-9.434a2.83,2.83,0,1,0-1.88,5.339l26.793,9.434a2.83,2.83,0,0,0,1.88-5.339Z" transform="translate(-339.987 -320.997)" fill="#0a195c"/>
        </g>
      </g>
    </g>
    <rect id="Rectangle_27096" data-name="Rectangle 27096" width="100" height="100" transform="translate(-6641 -13852)" fill="none"/>
  </g>
</svg>
