<svg xmlns="http://www.w3.org/2000/svg" width="100" height="100" viewBox="0 0 100 100">
  <g id="Family_care" data-name="Family care" transform="translate(6761 13372)">
    <g id="Group_11406" data-name="Group 11406" transform="translate(-6751 -13367)">
      <path id="Path_30640" data-name="Path 30640" d="M71.506,0A10.546,10.546,0,0,0,60.971,10.535a10.537,10.537,0,1,0,21.071,0A10.546,10.546,0,0,0,71.506,0Z" transform="translate(-55.259)" fill="#0a195c"/>
      <path id="Path_30641" data-name="Path 30641" d="M352.042,10.535a10.535,10.535,0,1,0-21.071,0,10.537,10.537,0,1,0,21.071,0Z" transform="translate(-277.849)" fill="#0a195c"/>
      <path id="Path_30642" data-name="Path 30642" d="M175.166,377.984c6.131,5.144,7.64,6.593,9.281,7.989a8.48,8.48,0,0,0,10.973-.036c2.857-2.473,5.953-5.327,8.738-7.768a10.384,10.384,0,0,1-6.1-14.477,18.814,18.814,0,0,0-17.406.012,10.482,10.482,0,0,1-5.489,14.281Z" transform="translate(-149.402 -298.076)" fill="#0a195c"/>
      <circle id="Ellipse_890" data-name="Ellipse 890" cx="5.268" cy="5.268" r="5.268" transform="translate(34.685 42.317)" fill="#0a195c"/>
      <path id="Path_30643" data-name="Path 30643" d="M68.39,135.334c-3.606-6.5-9.831-12.122-18.658-12.122-12.141,0-21.295,9.841-21.295,22.889,0,11.526,7.839,19.978,20.229,30.669a5.267,5.267,0,0,0,5.061-8.961C42.419,157.536,38.973,152.755,38.973,147.4H44.24c0,3.318,3.237,7.514,12.117,15.664a24.087,24.087,0,0,1,24.065,0c8.88-8.15,12.117-12.346,12.117-15.664h5.268c0,5.355-3.447,10.136-14.754,20.409a5.241,5.241,0,0,0,6.406,8.27c13.174-12,18.883-19.448,18.883-29.978,0-13.048-9.154-22.889-21.295-22.889-8.831,0-15.053,5.625-18.659,12.123Zm10.535,13.828A10.535,10.535,0,1,1,68.39,138.626,10.546,10.546,0,0,1,78.925,149.161Z" transform="translate(-28.437 -101.576)" fill="#0a195c"/>
    </g>
    <rect id="Rectangle_27103" data-name="Rectangle 27103" width="100" height="100" transform="translate(-6761 -13372)" fill="none"/>
  </g>
</svg>
