<svg xmlns="http://www.w3.org/2000/svg" width="100" height="100" viewBox="0 0 100 100">
  <g id="Stomach" transform="translate(6641 13612)">
    <g id="Group_9414" data-name="Group 9414" transform="translate(-6631 -13601)">
      <path id="Path_28860" data-name="Path 28860" d="M31.024,1.737h9.619S39.459,25.159,49.3,18.57c4.5-3.01,12.206-8.358,21.645-.24,7.421,6.381,14.027,16.856,3.847,38.957-5.31,11.524-22.941,29.724-49.782,9.861C20.926,64.128,10.1,56.809,9.38,80.136H0S-.366,52.847,15.391,54.884c8.167,1.057,27.038,6.042,30.063-13.469.626-4.037,2.387-9.021-7.215-14.669C34.15,24.342,30.782,22.178,31.024,1.737Z" transform="translate(0.001 -1.737)" fill="#0a195c"/>
    </g>
    <rect id="Rectangle_27100" data-name="Rectangle 27100" width="100" height="100" transform="translate(-6641 -13612)" fill="none"/>
  </g>
</svg>
