<svg xmlns="http://www.w3.org/2000/svg" width="100" height="100" viewBox="0 0 100 100">
  <g id="Nervs" transform="translate(6641 13972)">
    <path id="brain_icon" data-name="brain icon" d="M33.127,0a10.163,10.163,0,0,0-9.843,7.677c-.127,0-.223-.032-.35-.032A10.2,10.2,0,0,0,12.741,17.838a9.392,9.392,0,0,0,.271,2.23A12.631,12.631,0,0,0,6.418,37.411,12.694,12.694,0,0,0,7.868,60.186a11.671,11.671,0,0,0-.223,2.246A11.46,11.46,0,0,0,19.112,73.9a10.8,10.8,0,0,0,1.911-.191,11.44,11.44,0,0,0,22.3-3.631V10.193A10.2,10.2,0,0,0,33.127,0ZM91.737,48.416a12.675,12.675,0,0,0-6.418-11.005,12.535,12.535,0,0,0,1.322-5.558,12.741,12.741,0,0,0-7.915-11.786A10.1,10.1,0,0,0,68.8,7.645c-.127,0-.239.032-.35.032a10.173,10.173,0,0,0-20.036,2.516V70.076a11.44,11.44,0,0,0,22.3,3.631,10.8,10.8,0,0,0,1.911.191A11.46,11.46,0,0,0,84.092,62.432a11.671,11.671,0,0,0-.223-2.246A12.741,12.741,0,0,0,91.737,48.416Z" transform="translate(-6637 -13963)" fill="#0a195c"/>
    <rect id="Rectangle_27094" data-name="Rectangle 27094" width="100" height="100" transform="translate(-6641 -13972)" fill="none"/>
  </g>
</svg>
