<svg xmlns="http://www.w3.org/2000/svg" width="100" height="100" viewBox="0 0 100 100">
  <g id="Children_Psychology" data-name="Children Psychology" transform="translate(6761 13492)">
    <g id="Group_11404" data-name="Group 11404" transform="translate(-6750 -13481)">
      <circle id="Oval" cx="0.897" cy="0.897" r="0.897" transform="translate(53.555 33.817)" fill="#0a195c"/>
      <ellipse id="Oval-2" data-name="Oval" cx="0.897" cy="1.794" rx="0.897" ry="1.794" transform="translate(35.613 10.492)" fill="#0a195c"/>
      <path id="Shape" d="M35.8,0A16.8,16.8,0,1,0,52.6,16.8,16.8,16.8,0,0,0,35.8,0ZM24.6,12.6a4.2,4.2,0,1,1,4.2,4.2A4.2,4.2,0,0,1,24.6,12.6ZM35.8,29.4A8.408,8.408,0,0,1,27.4,21a1.4,1.4,0,0,1,2.8,0,5.6,5.6,0,1,0,11.2,0,1.4,1.4,0,0,1,2.8,0A8.408,8.408,0,0,1,35.8,29.4Zm7-12.6a4.2,4.2,0,1,1,2.97-1.23A4.2,4.2,0,0,1,42.8,16.8Z" transform="translate(7.599 0)" fill="#0a195c"/>
      <circle id="Oval-3" data-name="Oval" cx="1.794" cy="1.794" r="1.794" transform="translate(48.173 10.492)" fill="#0a195c"/>
      <path id="Shape-2" data-name="Shape" d="M52.261,19.3c-.192-1.014-.41-1.988-.669-2.9a20.314,20.314,0,0,0-7.4-10.606c-.378-.3-.753-.574-1.12-.851a19.027,19.027,0,0,1,2.472,12.74A19.475,19.475,0,0,1,52.261,19.3Z" transform="translate(17.228 1.975)" fill="#0a195c"/>
      <path id="Shape-3" data-name="Shape" d="M.84,46.979a7.843,7.843,0,0,0,1.154.671c1.2.61,2.832,1.448,3.168,3.157a5.237,5.237,0,0,1-.374,3.133c-.244.518-.5.966-.715,1.352-.069.12-.14.255-.21.377.58.466,1.372,1.06,1.708,1.308a1.4,1.4,0,0,1,.262,1.995,5.237,5.237,0,0,0-.54.867c.1.056.193.112.291.167a4.647,4.647,0,0,1,2.59,2.862,6.129,6.129,0,0,1-.12,2.979c-.064.293-.13.585-.168.879a5.589,5.589,0,0,0,.329,2.5,2.489,2.489,0,0,0,2.881,1.863,108.792,108.792,0,0,0,12.04-3.64c1.484-.5,2.825-.98,3.874-1.34.944-.329,1.653-.577,2.027-.7,5.822-1.84,7-3.941,6.969-5.381a1.4,1.4,0,0,1,2.8-.066c.081,3.49-2.918,6.22-8.916,8.12-.353.115-1.042.356-1.96.673l-1.315.459a22.319,22.319,0,0,1,4.936,8.94L63.3,78.063c-.031-.049-.062-.1-.092-.14a15.345,15.345,0,0,1-1.086-1.83,29.249,29.249,0,0,1-1.737-4.382,49.736,49.736,0,0,1-1.761-8.772,25.568,25.568,0,0,1-.122-4.651A19.612,19.612,0,0,1,42,38.952a19.885,19.885,0,0,1,.232-2.859A19.563,19.563,0,0,1,32.027.619c-2.029.325-3.991.7-5.792,1.065-5.649,1.12-9.87,3.128-12.549,5.961a24.018,24.018,0,0,0-5.023,8.207,35.048,35.048,0,0,0-1.141,4.14l-.14.595A20.468,20.468,0,0,1,6.011,24.28c-.265.588-.528,1.176-.756,1.775a2.611,2.611,0,0,0-.217.96c.062.454.6.944,1.162,1.463a4.89,4.89,0,0,1,2.045,3.5,4.148,4.148,0,0,1-.54,1.89,56.46,56.46,0,0,1-6.412,10.4C.227,45.575,0,46.091,0,46.3A5.946,5.946,0,0,0,.84,46.979ZM10.115,21.22l.14-.606a33.119,33.119,0,0,1,1.036-3.79,21.242,21.242,0,0,1,4.434-7.26,17.35,17.35,0,0,1,7.672-4.3,1.4,1.4,0,0,1,.818,2.68,14.64,14.64,0,0,0-6.454,3.543,18.459,18.459,0,0,0-3.842,6.3,31.255,31.255,0,0,0-.937,3.454l-.14.612a1.4,1.4,0,0,1-2.726-.637ZM9.8,24.952a1.4,1.4,0,1,1-1.4,1.4A1.4,1.4,0,0,1,9.8,24.952Z" transform="translate(0 0.247)" fill="#0a195c"/>
      <circle id="Oval-4" data-name="Oval" cx="0.897" cy="0.897" r="0.897" transform="translate(67.909 33.817)" fill="#0a195c"/>
      <path id="Shape-4" data-name="Shape" d="M49.367,16.023a19.61,19.61,0,0,1-5.624,8.869,4.19,4.19,0,1,1-6.135,3.78A19.394,19.394,0,0,1,32.276,29.9,16.641,16.641,0,0,0,47.368,49.516h.022c.466.039.934.071,1.41.071a16.79,16.79,0,0,0,.567-33.57ZM55.8,45.393a1.4,1.4,0,0,1-1.4-1.4,5.6,5.6,0,0,0-11.2,0,1.4,1.4,0,1,1-2.8,0,8.4,8.4,0,1,1,16.8,0A1.4,1.4,0,0,1,55.8,45.393Zm0-12.6a4.2,4.2,0,1,1,4.2-4.2A4.2,4.2,0,0,1,55.8,32.793Z" transform="translate(12.799 6.406)" fill="#0a195c"/>
    </g>
    <rect id="Rectangle_27101" data-name="Rectangle 27101" width="100" height="100" transform="translate(-6761 -13492)" fill="none"/>
  </g>
</svg>
