<svg xmlns="http://www.w3.org/2000/svg" width="100" height="100" viewBox="0 0 100 100">
  <g id="Adult_Psychology" data-name="Adult Psychology" transform="translate(6641 13492)">
    <g id="Group_11403" data-name="Group 11403" transform="translate(-6627 -13481)">
      <path id="Path_30605" data-name="Path 30605" d="M96.524,38.974a31.459,31.459,0,1,0-62.919,0l-6.05,12.1L33.6,54.7v18.15H45.7v9.68H84.424V63.772A31.4,31.4,0,0,0,96.524,38.974Z" transform="translate(-26.421 -6.38)" fill="#0a195c"/>
      <path id="Path_30606" data-name="Path 30606" d="M153.385,80.16a7.259,7.259,0,0,0-10.607-9.826,7.259,7.259,0,0,0-13.8-2.55,9.677,9.677,0,0,0-15.2,7.431,9.679,9.679,0,1,0,9.27,16.834l17.336,1.825,6.05,12.1,3.63-2.42-2.534-10.135a7.26,7.26,0,0,0,5.859-13.258Z" transform="translate(-94.477 -54.02)" fill="#0a195c"/>
      <g id="Group_11166" data-name="Group 11166" transform="translate(28.568 36.224)">
        <path id="Path_30607" data-name="Path 30607" d="M209.288,241.774l17.336,1.825,6.05,12.1,1.3-.869-6.143-13.651-16.94-1.21" transform="translate(-209.288 -239.969)" fill="#0a195c"/>
      </g>
      <rect id="Rectangle_27018" data-name="Rectangle 27018" width="4.84" height="15.4" transform="translate(29.966 31.383) rotate(-135)" fill="#fff"/>
      <rect id="Rectangle_27019" data-name="Rectangle 27019" width="4.84" height="15.4" transform="translate(40.917 27.899) rotate(135)" fill="#fff"/>
      <g id="Group_11167" data-name="Group 11167" transform="translate(13.234 12.025)">
        <path id="Path_30608" data-name="Path 30608" d="M151.5,90.548a9.673,9.673,0,0,1,7.788-10.719A9.679,9.679,0,0,0,148.011,91.4a7.227,7.227,0,0,1,3.408-.849Z" transform="translate(-141.739 -79.656)" fill="#0a195c"/>
        <path id="Path_30609" data-name="Path 30609" d="M111.341,151.752a8.443,8.443,0,0,1,2.52-6.026,6.6,6.6,0,0,0-.993-2.532,9.68,9.68,0,1,0,10.262,16.353,8.473,8.473,0,0,1-11.789-7.794Z" transform="translate(-107.711 -133.603)" fill="#0a195c"/>
      </g>
      <path id="Path_30610" data-name="Path 30610" d="M81.73,9.547A32.594,32.594,0,0,0,26.09,32.324L20.159,44.186a1.134,1.134,0,0,0,.431,1.48l5.5,3.3V66.473a1.134,1.134,0,0,0,1.134,1.134H38.188v8.546a1.134,1.134,0,1,0,2.269,0v-9.68a1.134,1.134,0,0,0-1.134-1.134H28.357V48.323a1.135,1.135,0,0,0-.551-.973l-5.149-3.09,5.58-11.16a1.134,1.134,0,0,0,.12-.507A30.325,30.325,0,1,1,77.343,56.5a1.134,1.134,0,0,0-.436.894V76.153a1.134,1.134,0,1,0,2.269,0V57.939A32.594,32.594,0,0,0,81.73,9.547Z" transform="translate(-20.039 0)" fill="#fff"/>
      <path id="Path_30611" data-name="Path 30611" d="M142.7,88.571a8.493,8.493,0,0,0,.981.057,8.393,8.393,0,0,0,5.258-14.937l-.02-.018c-.1-.081-.206-.16-.311-.236l-.011-.009a8.306,8.306,0,0,0,1.06-4.085,8.4,8.4,0,0,0-12.481-7.333,8.391,8.391,0,0,0-14.98-2.186,10.815,10.815,0,0,0-15.872,8.244,10.814,10.814,0,1,0,10.642,18.772l5.042.531a1.134,1.134,0,0,0,.237-2.256l-2.985-.314a10.833,10.833,0,0,0,1.215-1.747,1.134,1.134,0,1,0-1.984-1.1,8.642,8.642,0,0,1-2.459,2.776l-.029.019a8.545,8.545,0,1,1-9.673-14.085,10.788,10.788,0,0,0,1.366,4.088,1.134,1.134,0,1,0,1.964-1.136,8.54,8.54,0,0,1-1.143-4.272c0-.078-.022-.154-.018-.233s.026-.144.03-.218a8.543,8.543,0,0,1,13.418-6.56,1.146,1.146,0,0,0,1.675-.445,6.124,6.124,0,0,1,11.585,1.645,8.39,8.39,0,0,0-.94,10.452,1.134,1.134,0,1,0,1.889-1.256,6.126,6.126,0,1,1,10.434-.368,8.41,8.41,0,0,0-2.909-.523,1.134,1.134,0,1,0,0,2.269,6.126,6.126,0,1,1-6.125,6.125,1.134,1.134,0,0,0-2.269,0,8.4,8.4,0,0,0,4.9,7.628l2.2,8.811-1.9,1.264-5.475-10.95a1.134,1.134,0,0,0-.9-.621l-6.537-.688a1.134,1.134,0,0,0-.237,2.256l5.919.623,5.772,11.544a1.146,1.146,0,0,0,1.644.437l3.63-2.42a1.134,1.134,0,0,0,.471-1.219Z" transform="translate(-88.097 -47.64)" fill="#fff"/>
      <path id="Path_30612" data-name="Path 30612" d="M190.174,118.065l3.422,3.422a1.145,1.145,0,0,0,1.6,0l2.992-2.992,2.932,2.932a1.145,1.145,0,0,0,1.6,0L206.151,118a1.134,1.134,0,0,0,0-1.6l-2.932-2.932,2.871-2.871a1.134,1.134,0,0,0,0-1.6l-3.422-3.422a1.134,1.134,0,0,0-1.6,0l-2.871,2.871-2.932-2.932a1.134,1.134,0,0,0-1.6,0l-3.422,3.422a1.134,1.134,0,0,0,0,1.6l2.932,2.932-2.992,2.992A1.134,1.134,0,0,0,190.174,118.065Zm11.692-10.088,1.818,1.818-2.069,2.069-1.818-1.818Zm-7.407-.061,9.286,9.286-1.818,1.818-9.286-9.286Zm.311,7.156,1.818,1.818-2.19,2.19-1.818-1.818Z" transform="translate(-164.209 -89.3)" fill="#0a195c"/>
    </g>
    <rect id="Rectangle_27102" data-name="Rectangle 27102" width="100" height="100" transform="translate(-6641 -13492)" fill="none"/>
  </g>
</svg>
