<svg xmlns="http://www.w3.org/2000/svg" width="100" height="100" viewBox="0 0 100 100">
  <g id="Regime" transform="translate(6761 13612)">
    <g id="Group_11402" data-name="Group 11402" transform="translate(-6753 -13604)">
      <path id="Path_30098" data-name="Path 30098" d="M407.813,227.28a2.441,2.441,0,0,1-.717-1.731v-.894a7.7,7.7,0,0,1,7.7-7.7h.893a2.448,2.448,0,0,1,2.448,2.448v.894a7.7,7.7,0,0,1-7.7,7.7h-.893A2.439,2.439,0,0,1,407.813,227.28Z" transform="translate(-340.658 -181.547)" fill="#0a195c"/>
      <g id="Group_9746" data-name="Group 9746" transform="translate(40.367 38.758)">
        <path id="Path_30099" data-name="Path 30099" d="M284.546,247.37a12.5,12.5,0,0,1-7.79,2.7h-.894a7.344,7.344,0,0,1-7.344-7.343v-.894a12.766,12.766,0,0,1,.163-2.022,9.632,9.632,0,0,0-2.994-2.113,2.448,2.448,0,1,0-2.009,4.465,4.776,4.776,0,0,1,2.752,3.609,14.242,14.242,0,0,0-11.947.861,14.1,14.1,0,0,0-7.044,13.911,2.478,2.478,0,0,0,.042.244,35.339,35.339,0,0,0,11.008,18.778l1.067.953a6.892,6.892,0,0,0,8.924.244l.457-.366.471.375a6.9,6.9,0,0,0,8.912-.253l1.067-.953a35.339,35.339,0,0,0,11.008-18.778c.018-.081.032-.163.042-.245A14.08,14.08,0,0,0,284.546,247.37Z" transform="translate(-247.341 -237.483)" fill="#0a195c"/>
      </g>
      <path id="Path_30100" data-name="Path 30100" d="M101.824,17.952H72.448a2.448,2.448,0,0,1-2.354-3.121A11.417,11.417,0,0,1,78.16,6.919V2.448A2.448,2.448,0,0,1,80.608,0H93.664a2.448,2.448,0,0,1,2.448,2.448V6.919a11.417,11.417,0,0,1,8.066,7.913,2.448,2.448,0,0,1-2.354,3.121Z" transform="translate(-58.575 0)" fill="#0a195c"/>
      <g id="Group_9747" data-name="Group 9747" transform="translate(0 11.418)">
        <path id="Path_30101" data-name="Path 30101" d="M54.673,69.963H49.562a16.132,16.132,0,0,1,.748,2.068,7.344,7.344,0,0,1-7.061,9.362H13.872a7.344,7.344,0,0,1-7.062-9.362,16.167,16.167,0,0,1,.748-2.068H2.448A2.448,2.448,0,0,0,0,72.411V139.65A2.448,2.448,0,0,0,2.448,142.1H47.239a40.183,40.183,0,0,1-11.511-20.426,7.39,7.39,0,0,1-.125-.732A18.986,18.986,0,0,1,45.081,102.2a18.372,18.372,0,0,1,5.294-2.006,7.35,7.35,0,0,1,6.745-7.764V72.411A2.448,2.448,0,0,0,54.673,69.963ZM31.824,128.716H12.24a2.448,2.448,0,1,1,0-4.9H31.824a2.448,2.448,0,1,1,0,4.9Zm0-9.792H12.24a2.448,2.448,0,0,1,0-4.9H31.824a2.448,2.448,0,0,1,0,4.9Zm0-9.792H12.24a2.448,2.448,0,1,1,0-4.9H31.824a2.448,2.448,0,1,1,0,4.9Zm0-9.792H12.24a2.448,2.448,0,0,1,0-4.9H31.824a2.448,2.448,0,0,1,0,4.9Zm0-9.792H12.24a2.448,2.448,0,1,1,0-4.9H31.824a2.448,2.448,0,1,1,0,4.9Zm13.056,9.792H41.616a2.448,2.448,0,0,1,0-4.9h3.264a2.448,2.448,0,0,1,0,4.9Zm0-9.792H41.616a2.448,2.448,0,1,1,0-4.9h3.264a2.448,2.448,0,1,1,0,4.9Z" transform="translate(0 -69.963)" fill="#0a195c"/>
      </g>
    </g>
    <rect id="Rectangle_27099" data-name="Rectangle 27099" width="100" height="100" transform="translate(-6761 -13612)" fill="none"/>
  </g>
</svg>
