<svg xmlns="http://www.w3.org/2000/svg" width="100" height="100" viewBox="0 0 100 100">
  <g id="Children_surgery" data-name="Children surgery" transform="translate(6641 13732)">
    <g id="Group_11400" data-name="Group 11400" transform="translate(-6621 -13721)">
      <g id="Group_9399" data-name="Group 9399" transform="translate(0)">
        <path id="Path_28855" data-name="Path 28855" d="M121.206,40.2l0,0L106.719,26.92a14.726,14.726,0,0,0-5.437-3.115,13.16,13.16,0,1,0-15.345,0A14.724,14.724,0,0,0,80.5,26.92L66.013,40.2a6.255,6.255,0,1,0,8.713,8.975l5.9-5.9a36.978,36.978,0,0,0,1,5.822L75.7,57.323a9.075,9.075,0,0,0-.291,10.464L81.1,76.318a5.931,5.931,0,0,0,10.864-3.282v-.8a5.958,5.958,0,0,0-1.3-3.7l-4.585-5.728,2.586-1.939a8.275,8.275,0,0,0,9.879,0l2.585,1.939-4.583,5.73a5.949,5.949,0,0,0-1.3,3.7v.8a5.93,5.93,0,0,0,10.863,3.284l5.754-8.631a8.9,8.9,0,0,0-.265-10.247L105.592,49.1a36.923,36.923,0,0,0,1-5.82l5.9,5.9A6.328,6.328,0,0,0,117,50.993a6.215,6.215,0,0,0,4.2-10.795Zm-27.6,19.02c-3.431,0-6.721-3.889-8.5-9.87h17.005C100.33,55.329,97.04,59.218,93.609,59.218Z" transform="translate(-64)" fill="#0a195c"/>
      </g>
    </g>
    <rect id="Rectangle_27098" data-name="Rectangle 27098" width="100" height="100" transform="translate(-6641 -13732)" fill="none"/>
  </g>
</svg>
