<svg xmlns="http://www.w3.org/2000/svg" width="100" height="100" viewBox="0 0 100 100">
  <g id="Teeth" transform="translate(6641 14092)">
    <path id="dental_icon" data-name="dental icon" d="M35.76,45.309c6.105,0,8.935,4.63,9.529,11.209a45.2,45.2,0,0,1-.207,6.525c-.685,8.827-1.473,19.672,4.4,19.672,4.974,0,7.524-9.536,9-20.407,1.422-10.761-.088-16.116.658-20.9,1.413-9.054,9.315-17.171,6.875-28.716-1.353-6.4-4.881-9.415-8.372-10.684C49.6-.916,44.4,4.727,35.76,4.727S21.926-.916,13.878,2.012C10.389,3.279,6.859,6.291,5.5,12.7c-2.436,11.544,5.465,19.66,6.883,28.716.738,4.778-.763,10.135.658,20.9,1.473,10.871,4.028,20.407,9,20.407,5.871,0,5.088-10.846,4.4-19.672a45.523,45.523,0,0,1-.208-6.527C26.827,49.939,29.7,45.309,35.76,45.309Z" transform="translate(-6627.04 -14084.17)" fill="#0a195c"/>
    <rect id="Rectangle_27092" data-name="Rectangle 27092" width="100" height="100" transform="translate(-6641 -14092)" fill="none"/>
  </g>
</svg>
