<svg xmlns="http://www.w3.org/2000/svg" width="100" height="100" viewBox="0 0 100 100">
  <g id="Skin" transform="translate(6641 13372)">
    <g id="Group_11405" data-name="Group 11405" transform="translate(-6633 -13359)">
      <path id="Path_30634" data-name="Path 30634" d="M52.437,330.335l.1,1.024a10.863,10.863,0,1,1-21.522,0l.1-1.024H0v22.21a2.448,2.448,0,0,0,2.448,2.448H81.11a2.448,2.448,0,0,0,2.448-2.448v-22.21Zm17.069,9.6a2.448,2.448,0,1,1-2.448,2.448A2.491,2.491,0,0,1,69.506,339.933Zm-48.352-3.126a2.448,2.448,0,1,1-2.448,2.448A2.491,2.491,0,0,1,21.154,336.806Z" transform="translate(0 -281.414)" fill="#0a195c"/>
      <path id="Path_30635" data-name="Path 30635" d="M310.431,222.258h31.614V209.479a2.448,2.448,0,0,0-2.448-2.448H308.9Z" transform="translate(-258.487 -178.235)" fill="#0a195c"/>
      <path id="Path_30636" data-name="Path 30636" d="M31.614,222.258l1.532-15.227H2.448A2.448,2.448,0,0,0,0,209.479v12.779Z" transform="translate(0 -178.235)" fill="#0a195c"/>
      <path id="Path_30637" data-name="Path 30637" d="M226.406,38.1a1.026,1.026,0,0,0-2.017,0L219.5,86.652c0,.035-.008.07-.013.1a5.967,5.967,0,1,0,11.815,0q-.008-.052-.013-.1Z" transform="translate(-183.619 -36.168)" fill="#0a195c"/>
      <path id="Path_30638" data-name="Path 30638" d="M96.936,51.96a7.371,7.371,0,0,0,6.678-10.51l-4.463-9.47a2.448,2.448,0,0,0-4.429,0l-4.464,9.47a7.371,7.371,0,0,0,6.678,10.51Z" transform="translate(-74.936 -30.576)" fill="#0a195c"/>
      <path id="Path_30639" data-name="Path 30639" d="M339.329,51.96a7.371,7.371,0,0,0,6.678-10.51l-4.464-9.47a2.448,2.448,0,0,0-4.429,0l-4.463,9.47a7.371,7.371,0,0,0,6.678,10.51Z" transform="translate(-277.771 -30.576)" fill="#0a195c"/>
    </g>
    <rect id="Rectangle_27104" data-name="Rectangle 27104" width="100" height="100" transform="translate(-6641 -13372)" fill="none"/>
  </g>
</svg>
