<svg xmlns="http://www.w3.org/2000/svg" width="100" height="100" viewBox="0 0 100 100">
  <g id="Bones" transform="translate(6761 13967)">
    <g id="Group_11397" data-name="Group 11397" transform="translate(-6739 -13958)">
      <path id="Path_30664" data-name="Path 30664" d="M76.984,195.917a38.966,38.966,0,0,1,4.264,15.146V227.3H85.99V210.847a43.718,43.718,0,0,0-4.783-17.083Z" transform="translate(-76.984 -163.14)" fill="#0a195c"/>
      <path id="Path_30665" data-name="Path 30665" d="M347.956,58.5a100.14,100.14,0,0,0-8.383-20.667l-4.172,2.25a95.522,95.522,0,0,1,7.98,19.66A85.957,85.957,0,0,1,346.4,83.368V96.012h4.741V83.368A91.32,91.32,0,0,0,347.956,58.5Z" transform="translate(-294.559 -31.853)" fill="#0a195c"/>
      <path id="Path_30666" data-name="Path 30666" d="M177.509,323.253v2.4a2.385,2.385,0,0,0,4.741,0v-2.4h14.2l-.015-10.831-9.856.555a6.89,6.89,0,0,1-6.637,4.873h-.1a7.417,7.417,0,0,1-6.589-4.123l-10.29.565v8.96Z" transform="translate(-149.379 -263.045)" fill="#0a195c"/>
      <path id="Path_30667" data-name="Path 30667" d="M153.321,89.839a6.918,6.918,0,0,1-4.239,7.2,7.331,7.331,0,0,1-7.656-1.121l-9.918,4.994a52.155,52.155,0,0,1,2.38,5.778l14.314-3.836.625,2.276a2.474,2.474,0,0,0,2.9,1.431,2.115,2.115,0,0,0,1.681-2.655l-.625-2.292,13.29-3.6A85.289,85.289,0,0,0,161.209,85.8Z" transform="translate(-122.89 -72.243)" fill="#0a195c"/>
      <path id="Path_30668" data-name="Path 30668" d="M104.858,23c.317.468.584,1.046.89,1.542l13.865-7.012,1.093,2.07a2.454,2.454,0,0,0,3.132.824,2.126,2.126,0,0,0,1.116-2.938l-1.111-2.121L135.534,9.38c-1.258-2.212-2.565-4.354-3.963-6.331A7.216,7.216,0,0,0,126.684.072a7.007,7.007,0,0,0-5.45,1.519L119.2,3.237a6.9,6.9,0,0,0-8.3.961,7.829,7.829,0,0,0-2.091,7.665L106.3,13.569A7.092,7.092,0,0,0,104.858,23Z" transform="translate(-99.455 -0.001)" fill="#0a195c"/>
      <path id="Path_30669" data-name="Path 30669" d="M186.757,191.9l-9.186,2.49a6.884,6.884,0,0,1-5.623,6.167,7.436,7.436,0,0,1-7.26-2.679L154.5,200.593a48.8,48.8,0,0,1,1.256,7.483l14.409-.8.107,2.4a2.434,2.434,0,0,0,2.51,1.961A2.132,2.132,0,0,0,175,209.35l-.107-2.341,14.155-.8A83.022,83.022,0,0,0,186.757,191.9Z" transform="translate(-142.251 -161.568)" fill="#0a195c"/>
      <path id="Path_30670" data-name="Path 30670" d="M173.2,422.33a7.151,7.151,0,0,0,13.349,0h9.92V410.951h-9.92a7.182,7.182,0,0,1-13.349,0H162.966L163,422.33Z" transform="translate(-149.377 -346.003)" fill="#0a195c"/>
    </g>
    <rect id="Rectangle_27093" data-name="Rectangle 27093" width="100" height="100" transform="translate(-6761 -13967)" fill="none"/>
  </g>
</svg>
