<svg xmlns="http://www.w3.org/2000/svg" width="100" height="100" viewBox="0 0 100 100">
  <g id="Heart" transform="translate(6761 14092)">
    <g id="Group_11193" data-name="Group 11193" transform="translate(-6745 -14091)">
      <g id="Group_11192" data-name="Group 11192" transform="translate(0)">
        <path id="Path_30655" data-name="Path 30655" d="M180.543,34.454c.333.116.634.223.949.334.236.083.477.165.707.249l.141.05h1.082a23.956,23.956,0,0,1,3.746-7.144c.07-.1.139-.2.211-.293q.456-.621.931-1.216c.156-.2.318-.388.478-.582q.354-.429.713-.838c.143-.163.286-.323.432-.483.217-.238.432-.467.647-.692.173-3.949,1.789-9.8,7-9.8a1.754,1.754,0,1,1,0,3.509c-1.466,0-2.321,1.325-2.818,2.823.11-.068.22-.114.33-.178q.562-.331,1.123-.608c.276-.136.551-.262.828-.381q.489-.212.978-.388c.211-.076.421-.156.632-.223.457-.146.913-.268,1.368-.376.176-.041.353-.081.529-.117.5-.1,1-.194,1.5-.262l.236-.029a33.515,33.515,0,0,1,3.536-.242h.032a13.923,13.923,0,0,0,.5-3.526c0-3.557-3.016-6.819-7.5-8.115a1.755,1.755,0,0,1-1.267-1.686V1.754a1.754,1.754,0,0,0-3.509,0v1.84a1.755,1.755,0,0,1-1.6,1.747,13.975,13.975,0,0,0-3.967.913,1.754,1.754,0,0,1-2.282-.976l-1.531-3.825a1.165,1.165,0,0,0-2.2.754l1.664,5.821a1.751,1.751,0,0,1-.357,1.626h0c-3.659,4.252-5.515,11.682-5.515,22.081v1.922l.037.014C179.1,33.954,179.84,34.211,180.543,34.454Z" transform="translate(-158.987)" fill="#0a195c"/>
        <path id="Path_30656" data-name="Path 30656" d="M84.633,210.891a8,8,0,0,1,.612-.688c.81-.81,2.117-1.878,3.772-3.229,5.247-4.286,15.012-12.265,15.012-18.336a3.483,3.483,0,0,0-.067-.691c-.009-.047-.024-.083-.035-.127a2.372,2.372,0,0,0-.176-.488c-.014-.027-.027-.057-.041-.082a2.4,2.4,0,0,0-.234-.319,6.991,6.991,0,0,1-.688-.561c-.052-.052-.082-.116-.129-.17a14.964,14.964,0,0,0-2.95-1.334c-.251-.091-.518-.184-.782-.277s-.524-.186-.824-.289a55.712,55.712,0,0,1-7.14-2.865c-.024-.012-.07-.019-.1-.03s-.051,0-.076-.008c-1.053-.295-3.772.259-6.579,3.027-.019.019-.046.025-.066.043-2.869,2.86-6.429,8.676-6.429,19.958s1.027,14.778,1.52,15.8a1.74,1.74,0,0,1,.235-.015,3.27,3.27,0,0,0,.448-.033c.012,0,.021-.011.033-.013.757-.114,1.2-.572,1.6-1.524l.011-.026a20.46,20.46,0,0,0,.721-2.279,14.817,14.817,0,0,1,2.3-5.381C84.6,210.937,84.615,210.913,84.633,210.891Z" transform="translate(-77.714 -146.535)" fill="#0a195c"/>
        <path id="Path_30657" data-name="Path 30657" d="M320.5,172.256c-.03.127-.049.256-.084.381l0,.01c0,.017-.017.03-.022.047-.091.321-.206.633-.328.944-.031.078-.052.157-.084.234-.006.013-.016.023-.022.036a9.027,9.027,0,0,1-.511,1c-.04.069-.072.141-.114.21-.007.012-.018.019-.025.031-.075.119-.134.244-.216.36-.038.055-.091.1-.131.158a7.668,7.668,0,0,1-.761.911h0l0,0h0a3.832,3.832,0,0,0-.614.788l-.024.037a2.013,2.013,0,0,0-.137.314,1.632,1.632,0,0,0-.072.232,1.261,1.261,0,0,0-.026.2,1.073,1.073,0,0,0,.057.42,1.254,1.254,0,0,0,.077.166c.017.032.037.063.057.1a1.933,1.933,0,0,0,.184.247c.03.034.065.068.1.1a2.881,2.881,0,0,0,.24.22c.057.046.123.091.186.135.081.058.162.115.253.17s.22.12.337.178c.069.034.133.07.206.1.166.073.346.14.533.2.041.014.077.03.119.043.22.069.455.129.7.181l.059.015c.251.051.517.089.793.119l.065.009c.3.03.611.046.936.046.5,0,.935-.022,1.339-.053.073-.006.149-.01.219-.017.368-.034.7-.081.99-.137.069-.013.131-.029.2-.044a5.984,5.984,0,0,0,.607-.166c.059-.02.124-.037.179-.058a3.532,3.532,0,0,0,.5-.234c.06-.034.112-.069.167-.1a2.391,2.391,0,0,0,.283-.214c.02-.017.041-.034.06-.052a2,2,0,0,0,.508-.884,1.7,1.7,0,0,1,.119-.245,5.971,5.971,0,0,0,.1-1.3,12.642,12.642,0,0,0-6.657-10.051c.013.149.018.316.028.473.006.087.011.173.016.262.013.261.018.53.021.808l0,.081c0,.02.009.039.009.059l-.006.029c0,.044,0,.086,0,.13v.017c0,.058,0,.116,0,.174l0,.159,0,.092,0,.067c-.005.134-.011.267-.02.4,0,.013-.008.024-.009.037-.014.229-.028.457-.052.687l-.007.059,0,.027c-.016.137-.034.274-.053.411v.007l-.009.028c-.018.127-.031.254-.053.381v0h0C320.628,171.712,320.561,171.983,320.5,172.256Z" transform="translate(-271.341 -134.992)" fill="#0a195c"/>
        <path id="Path_30658" data-name="Path 30658" d="M238.457,109.857c-.456.042-.9.1-1.349.174-.163.026-.326.049-.489.079-.38.07-.755.161-1.129.257-.22.058-.441.116-.66.184-.347.107-.692.232-1.036.368q-.335.133-.669.286c-.363.166-.725.348-1.086.554-.174.1-.349.209-.523.318a15.123,15.123,0,0,0-1.248.862c-.09.07-.181.15-.271.223a18.469,18.469,0,0,0-1.457,1.3l0,0c-.478.478-.933.969-1.371,1.465l-.131.147a32.959,32.959,0,0,0-3.371,4.6l-.068.111c-.261.437-.493.86-.706,1.271-.05.1-.1.194-.147.289-.2.391-.374.771-.521,1.127-.017.041-.032.08-.049.12a7.552,7.552,0,0,0-.572,2.058c0,.039-.025.071-.03.109a1.485,1.485,0,0,0,0,.185,6.62,6.62,0,0,1,.689.621,15.706,15.706,0,0,0,3.749,1.62c.111.033.221.066.334.1q.416.118.834.22c.17.041.341.079.511.116.246.054.49.1.732.148.215.038.427.068.639.1.2.028.394.059.583.078.4.04.793.068,1.162.068,1.156,0,2.255-.039,3.316-.1.133-.008.271-.012.4-.021.993-.066,1.934-.165,2.833-.286l.288-.04.011-.013,0,0,.01-.012a8,8,0,0,1,.641-.733l.027-.032.008-.01a4.465,4.465,0,0,0,.641-.852c.059-.1.11-.2.163-.3a6.153,6.153,0,0,0,.351-.809c.018-.052.039-.1.056-.156.011-.034.023-.068.034-.1a8.685,8.685,0,0,0,.261-1.1l.012-.06a11.629,11.629,0,0,0,.127-1.2c0-.063.006-.125.008-.188.014-.33.015-.654.007-.972,0-.164-.011-.324-.02-.479s-.019-.287-.03-.428c-.015-.182-.03-.367-.048-.528l-.3-1.818a1.735,1.735,0,0,1,.016-.62c.008-.04.027-.075.037-.115a1.728,1.728,0,0,1,.254-.543c.019-.028.021-.064.043-.091s.04-.027.057-.046a1.722,1.722,0,0,1,.539-.442l.015-.006.008,0a15.257,15.257,0,0,1,8.53-.708,2.557,2.557,0,0,0,2.632-1.388,2.524,2.524,0,0,0,.087-2.1,2.549,2.549,0,0,0-1.533-1.467,22.917,22.917,0,0,0-7.2-1.535h-.936c-1.205,0-2.36.032-3.483.125C238.6,109.847,238.527,109.85,238.457,109.857Z" transform="translate(-193.967 -88.662)" fill="#0a195c"/>
        <path id="Path_30659" data-name="Path 30659" d="M93.8,33.01a9.985,9.985,0,0,1,6.352-1.673c.738-.318,1.531-.613,2.42-.9V12.28A19.816,19.816,0,0,0,99.9,2.369,4.739,4.739,0,0,0,95.822,0H88.933c2.2,3.089,4.865,7.62,4.865,12.28Z" transform="translate(-86.78)" fill="#0a195c"/>
        <path id="Path_30660" data-name="Path 30660" d="M114.286,447.433v8a4.386,4.386,0,0,0,8.771,0v-.982A35.8,35.8,0,0,1,114.286,447.433Z" transform="translate(-107.269 -361.581)" fill="#0a195c"/>
        <path id="Path_30661" data-name="Path 30661" d="M334.773,246.723a6.429,6.429,0,0,1-1.875,1.064c-.14.055-.279.11-.421.157-.069.022-.138.04-.208.061a12.2,12.2,0,0,1-2.873.469c-.34,1.087-.866,2.828-1.388,4.795.016.053.052.094.063.149.016.077,1.644,7.713,7.478,9.172,4.135,1.033,6.229,5.749,6.453,6.282a1.754,1.754,0,1,1-3.233,1.364c-.428-1-2-3.724-4.072-4.243a12.915,12.915,0,0,1-8.042-6.614,20.756,20.756,0,0,0-.3,3.159,12.371,12.371,0,0,0,2.381,6.114,16.943,16.943,0,0,1,2.825,6.97,24.066,24.066,0,0,1,6.889,7.183c1.055,2.111,1.96,2.5,2.1,2.546a1.755,1.755,0,0,1-.165,3.5,4.248,4.248,0,0,1-2.555-1.112,6.835,6.835,0,0,1-1.467,2.352,1.754,1.754,0,1,1-2.481-2.481,6.343,6.343,0,0,0,1.217-3.581,17.727,17.727,0,0,0-3.81-4.169,24.6,24.6,0,0,1-3.739,8.413,14.559,14.559,0,0,0-2.948,7.5c.733.169,1.451.339,2.144.506a35.215,35.215,0,0,0,8.376,1.341c3.931,0,10.526-2.279,10.526-17.543C345.649,272.174,341.848,258.176,334.773,246.723Z" transform="translate(-277.231 -199.383)" fill="#0a195c"/>
        <path id="Path_30662" data-name="Path 30662" d="M146.565,249.981c-.415-.692-.843-1.416-1.242-2.171a6.453,6.453,0,0,1-5.148,3.023,1.754,1.754,0,1,1,0-3.509c1.851,0,3.292-3.161,3.591-4.043a9.614,9.614,0,0,1-.082-1.22,61.491,61.491,0,0,1,2.937-14.252c-.1-.019-.2-.035-.3-.056-.194-.041-.376-.1-.562-.147-.209-.056-.419-.11-.619-.178s-.381-.143-.568-.219-.345-.14-.508-.219c-.189-.091-.366-.19-.543-.292-.142-.082-.282-.164-.416-.253-.174-.115-.337-.237-.5-.363-.114-.091-.224-.183-.33-.28a6.082,6.082,0,0,1-.433-.433c-.088-.1-.169-.2-.249-.3a5.272,5.272,0,0,1-.353-.5c-.023-.038-.055-.071-.077-.109-.035-.06-.05-.124-.082-.185-.07-.133-.157-.258-.214-.4-.043-.1-.066-.21-.1-.314-.015-.046-.03-.091-.044-.137a4.53,4.53,0,0,1-.183-.921l0-.01c-.141.014-.3.019-.439.032q-.887.082-1.82.134c-.25.014-.5.03-.753.04-.85.036-1.716.06-2.615.06a14.381,14.381,0,0,1-1.512-.09c-.348-.036-.71-.1-1.072-.155-.18-.029-.353-.05-.537-.084-.412-.077-.824-.172-1.241-.272-.158-.038-.313-.072-.471-.113-.39-.1-.77-.215-1.154-.334-.207-.064-.412-.127-.616-.2-.139-.047-.285-.085-.423-.134-.008.188-.046.377-.065.565-.023.23-.04.461-.079.691-.043.251-.106.5-.167.754-.056.23-.1.459-.175.689-.077.252-.174.5-.267.756-.085.229-.163.457-.261.685-.109.253-.236.505-.36.758-.11.225-.214.45-.335.674-.138.255-.294.508-.446.763-.132.22-.257.44-.4.659-.165.256-.346.509-.523.763-.143.205-.279.411-.429.615l0,.019a6.9,6.9,0,0,0,1.24,4.028l0,0a13.108,13.108,0,0,0,4.049,2.993,1.741,1.741,0,0,1,1.74,1.752,1.767,1.767,0,0,1-1.77,1.754,4.42,4.42,0,0,1-1.77-.451c.011.213.016.384.016.451a1.754,1.754,0,1,1-3.509,0,6.894,6.894,0,0,0-1.24-4.023,7.344,7.344,0,0,1-1.719-3.031l-.042.045c-.179.19-.355.382-.538.57-.249.256-.506.508-.761.76-.182.181-.361.363-.546.542-.269.26-.541.513-.814.768-.176.165-.35.333-.528.5-.287.264-.576.521-.865.779-.166.148-.33.3-.5.446-.329.291-.657.573-.985.855l-.131.114a41.859,41.859,0,0,1,1.547,8.133c.006.017.018.03.023.047a11.394,11.394,0,0,0,3.587.516,1.754,1.754,0,1,1,0,3.508,16.98,16.98,0,0,1-3.39-.309,5.545,5.545,0,0,0,2.443,4.015,1.758,1.758,0,0,1-.817,3.31,1.726,1.726,0,0,1-.775-.183,9.325,9.325,0,0,1-4.478-8.586,34.242,34.242,0,0,0-1.1-7.969c-.4.326-.787.645-1.165.954-1.516,1.239-2.825,2.308-3.51,2.993a4.863,4.863,0,0,0-.725.945,14.749,14.749,0,0,0-1.333,3.643c-.128.469-.273.97-.433,1.475l-.041.127c-.071.219-.146.436-.228.654-.06.16-.129.317-.2.474-.086.2-.178.4-.278.6s-.217.41-.34.606c-.072.115-.151.223-.229.333a5.755,5.755,0,0,1-.378.467c-.094.107-.186.214-.29.313a4.833,4.833,0,0,1-.612.49c-.034.023-.061.053-.1.076a28.31,28.31,0,0,0,2.233,3.857q.746,1.105,1.591,2.139c.2.244.4.49.607.726q.442.508.909,1c.281.293.569.572.858.85q.638.616,1.317,1.2c.36.308.72.616,1.088.9.311.244.633.479.956.713q.442.323.89.626c.365.247.733.493,1.111.729.2.122.392.236.589.353.457.273.916.545,1.393.8a40.461,40.461,0,0,0,11.359,4.059c.016,0,.028.015.044.019a20.777,20.777,0,0,0,3.554.409,57.447,57.447,0,0,1,10.572.941,18.591,18.591,0,0,1,3.431-8.624,17.674,17.674,0,0,0,3.539-9.859A12.378,12.378,0,0,0,146.565,249.981Z" transform="translate(-98.071 -178.906)" fill="#0a195c"/>
        <path id="Path_30663" data-name="Path 30663" d="M183.02,497.035a4.328,4.328,0,0,0,2.841-1.052,44.025,44.025,0,0,1-7.144-2.5A4.39,4.39,0,0,0,183.02,497.035Z" transform="translate(-159.337 -398.794)" fill="#0a195c"/>
      </g>
    </g>
    <rect id="Rectangle_27091" data-name="Rectangle 27091" width="100" height="100" transform="translate(-6761 -14092)" fill="none"/>
  </g>
</svg>
