<svg xmlns="http://www.w3.org/2000/svg" width="100" height="100" viewBox="0 0 100 100">
  <g id="Women" transform="translate(6761 13732)">
    <g id="Group_11401" data-name="Group 11401" transform="translate(-6743 -13725)">
      <g id="Group_9401" data-name="Group 9401" transform="translate(30.022 39.902)">
        <g id="Group_9400" data-name="Group 9400" transform="translate(0)">
          <path id="Path_28856" data-name="Path 28856" d="M257.638,240c-2.718,0-3.746,3.4-3.787,3.551a2.336,2.336,0,0,1-2.414,1.8,2.488,2.488,0,0,1-2.389-1.819c-.037-.129-1.064-3.534-3.782-3.534-2.426,0-3.695,2.124-3.695,4.223,0,2.971,2.686,5.37,8.276,10.085q.778.658,1.6,1.359c.55-.468,1.086-.918,1.6-1.357,3.764-3.174,8.278-6.727,8.278-10.088C261.332,242.125,260.063,240,257.638,240Z" transform="translate(-241.571 -240.001)" fill="#0a195c"/>
        </g>
      </g>
      <g id="Group_9403" data-name="Group 9403" transform="translate(0)">
        <g id="Group_9402" data-name="Group 9402" transform="translate(0)">
          <path id="Path_28857" data-name="Path 28857" d="M125.841,47.384a27.228,27.228,0,0,0-16.158-24.953,9.805,9.805,0,0,0-5.605-14.024L100.9,7.345A27.508,27.508,0,0,1,90.2.733,2.524,2.524,0,0,0,88.433,0H73.469A2.491,2.491,0,0,0,71.1,1.7L68.518,9.464a19.331,19.331,0,0,0,1.62,15.813A14.664,14.664,0,0,1,67.87,42.6a26.02,26.02,0,0,0-2.5,32.048l6.025,9.37a2.494,2.494,0,0,0,2.075,1.111H103.4a2.492,2.492,0,0,0,2.494-2.494,24.031,24.031,0,0,0-1.608-8.552A27.19,27.19,0,0,0,125.841,47.384Zm-20.119,10.64c-1,.845-2.068,1.746-3.186,2.716a2.5,2.5,0,0,1-3.268,0c-1.12-.972-2.187-1.87-3.188-2.718-5.833-4.92-10.046-8.475-10.046-13.9,0-5.166,3.814-9.211,8.682-9.211a8.119,8.119,0,0,1,6.186,2.828,8.119,8.119,0,0,1,6.186-2.828c4.868,0,8.682,4.045,8.682,9.211C115.771,49.944,110.627,53.887,105.722,58.024Z" transform="translate(-61 0)" fill="#0a195c"/>
        </g>
      </g>
    </g>
    <rect id="Rectangle_27097" data-name="Rectangle 27097" width="100" height="100" transform="translate(-6761 -13732)" fill="none"/>
  </g>
</svg>
